<?xml version="1.0" encoding="utf-8"?>
<!-- Generator: Adobe Illustrator 27.9.0, SVG Export Plug-In . SVG Version: 6.00 Build 0)  -->
<svg version="1.1" id="Layer_1" fill="#FFF" xmlns="http://www.w3.org/2000/svg" xmlns:xlink="http://www.w3.org/1999/xlink" x="0px" y="0px"
	 viewBox="0 0 200 200">
<path class="st0" d="M47.6,106H19.4c-1,0-2.1-0.1-3.1,0c-0.8,0-1-0.3-1.1-1c-1.2-6.7-2-13.5-2.3-20.3c-0.9-17.3,1.3-34.2,5.3-51
	c0.5-2.3,1.6-3.2,3.8-3.4c15.9-1.4,31.4-5.2,46.1-11.2c9-3.6,17.2-8.9,24.2-15.7c1-1,2.1-2,3.3-3v53.6c-0.3,0.9-0.8,1.7-1.6,2.3
	c-1.9,2-3.8,4.1-5.7,6.2c-0.5,0.7-1.2,1.2-2,1.3c-5,0.1-10.1,0.1-15.1,0c-1.4,0-1.8-0.5-1.8-2V52c0-2.6-0.8-3.4-3.3-3.4H42.4
	c-0.4,0-0.8,0-1.2,0.1c-1.8,0.3-2.6,1-2.6,2.9v25.3c0,1.9,0.8,2.7,2.7,2.9h27.6c0.7,0,1.3,0,2,0.1c0.6,0.2,0.7,0.5,0.3,1
	c-0.6,0.7-1.1,1.4-1.7,2c-5.1,5.4-10.1,10.8-15.1,16.3c-1.9,2.1-3.9,4.2-5.8,6.3C48.3,105.8,48.1,106.1,47.6,106z M108.4,9.4
	c7.3,6.3,16.1,11.4,27,15.4c12.6,4.6,25.7,7.7,39,9.2c0.6,0.1,1.3,0.1,1.9,0.2l1.3,0.1c0.1,0,0.2,0,0.3,0c0,0.1,0,0.1,0,0.2
	c1.9,8.5,3.3,16.2,4.2,23.5c0.8,6.9,1.2,13.9,1.1,20.9h-18.5c-7.1-13.5-18.1-24.6-31.5-31.9c-0.9-0.6-1.9-0.9-2.9-0.9
	c-2.1,0-3.8,1.5-4.2,3.5c-0.1,0.5-0.1,1-0.1,1.5v21.1l-0.5-0.5c-0.9-1.1-1.9-2.1-2.8-3l-0.8-0.8c-1.7-1.8-3.5-3.7-5.2-5.6
	c-1.9-2-3.8-4.2-5.8-6.2c-0.6-0.6-1.2-1.2-1.7-1.8l-1-1.1c0-0.2,0-0.5,0-0.7L108.4,9.4 M104.4,0.2v52.1c0,0.5,0.2,1.1-0.2,1.6
	c-0.2,0.6,0.3,0.8,0.6,1.1c1.2,1.2,2.3,2.5,3.5,3.7c3.7,3.9,7.2,7.9,10.9,11.8c1.2,1.2,2.3,2.4,3.5,3.7c2.2,2.5,4.6,4.8,6.7,7.3
	c0.1,0.2,0.3,0.3,0.6,0.3c0.1,0,0.1,0,0.2,0V51.1c0-0.8,0-1.1,0.2-1.1c0.4,0.1,0.7,0.2,1,0.4c13.2,7.1,23.8,18.1,30.5,31.4
	c0.3,0.7,1,1.1,1.7,1h21.2c2.5,0,2.6,0,2.5-2.5c0-7.6-0.4-15.3-1.2-22.9c-1-8-2.5-16-4.3-23.9c-0.3-1.9-1.9-3.3-3.8-3.3
	c-1-0.1-2.1-0.1-3.1-0.3c-13-1.5-25.8-4.5-38.1-9c-10.7-4-20.6-9.3-28.8-17.4C106.9,2.5,105.8,1.5,104.4,0.2L104.4,0.2z
	 M155.7,109.9c2.2-1.8,4.2-3.8,6.1-5.9c0.5-0.6,1.2-0.9,1.9-0.8h20.2c1,0,1.2,0.1,1,1.2c-4.5,23.6-14.2,44.7-30.4,62.6
	c-13.6,15-30.2,25.6-49.2,32.6c-1.2,0.5-0.9-0.4-0.9-1v-48c0-0.5,0-1.1-0.1-1.6c0.5-0.6,1.2-0.4,1.7-0.4h18c1.1,0.1,2.2-0.4,2.9-1.2
	c3.7-4,7.4-8,11.1-12c2.2-2.4,4.4-4.8,6.6-7.1c4.4-4.7,8.8-9.4,13.1-14.1c0.6-0.7,0.6-1.1,0-1.8
	C157.1,111.5,156.4,110.7,155.7,109.9L155.7,109.9z M49.8,128c2.5,2.7,5,5.5,7.4,8.1c1.6,1.8,3.3,3.5,4.9,5.3l1.3,1.4
	c2.4,2.6,4.9,5.3,7.4,7.9c1.3,1.3,3,1.9,4.8,1.9h16V194c-2.4-0.9-4.7-1.9-7.1-3.1c-12.3-5.7-23.4-13.6-32.9-23.3
	c-11.1-11.3-19.8-24.8-25.5-39.6L49.8,128 M51.1,124h-0.2c-0.5,0-1.1,0.1-1.6,0.1H21c-0.5,0-0.8,0.1-0.5,1
	c5.9,17.1,15.5,32.6,28.1,45.5c9.8,10,21.4,18.2,34.1,24.1c4.2,2,8.4,3.7,12.8,5.2V149c-0.2-0.3-0.6-0.5-1-0.4h-19
	c-0.7,0.1-1.4-0.2-1.9-0.6c-2.9-3-5.7-6.1-8.6-9.2c-4.3-4.7-8.8-9.4-13.1-14.2C51.8,124.2,51.5,124,51.1,124L51.1,124z"/>
<g>
	<path class="c" d="M131.7,122c-0.7-0.8-1-0.7-1.7,0c-3.3,3.7-6.7,7.2-10.1,10.9c-0.5,0.5-1.1,0.8-1.8,0.8H81.9
		c-0.7,0-1.4-0.3-1.8-0.8c-3.3-3.5-6.5-7.1-9.8-10.6c-2.5-2.7-5-5.5-7.5-8.1c-0.5-0.6-0.9-1-0.1-1.8c4.7-5,9.3-10,13.9-15
		c0.6-0.7,0.6-1.1,0-1.8c-2.2-2.4-4.4-4.7-6.6-7.1c-0.6-0.6-0.9-0.7-1.5,0c-2,2.3-4.2,4.5-6.2,6.8c-5.3,5.7-10.6,11.5-15.9,17.2
		c-0.4,0.5-0.7,0.8-0.1,1.4c9.6,10.3,19.1,20.6,28.6,30.9c0.5,0.6,1.3,0.9,2.1,0.9H100c7.8,0,15.6,0,23.3,0c0.7,0.1,1.3-0.2,1.8-0.7
		c4.4-4.8,8.9-9.6,13.4-14.4c0.5-0.5,0.4-0.8,0-1.2C136.2,126.9,133.9,124.5,131.7,122z"/>
	<path class="st0" d="M154.4,113.2c-0.2-0.2-0.4-0.5-0.5-0.6L145,103c-7.1-7.7-14.3-15.4-21.4-23.1c-7.5-8.1-15.1-16.2-22.6-24.4
		c-0.8-0.9-1.2-0.8-2,0c-5.2,5.7-10.5,11.4-15.8,17.1c-3.7,4-7.4,8-11.1,12c-0.6,0.6-0.5,0.9,0,1.5c2.3,2.4,4.6,4.8,6.8,7.3
		c0.6,0.7,0.9,0.6,1.4,0c1.6-1.8,3.2-3.5,4.8-5.2c4.7-5.1,9.5-10.3,14.3-15.4c0.5-0.5,0.7-0.7,1.3-0.1c3.8,3.9,7.4,8.1,11.3,11.9
		c3.1,3,5.9,6.3,8.8,9.5c5.6,6.1,11.3,12.3,17,18.4c0.4,0.5,0.5,0.9,0,1.4c-1.4,1.4-2.7,2.9-4,4.3c-0.3,0.3-0.7,0.6-0.2,1.1
		c2.4,2.5,4.8,5.1,7.1,7.7c0.4,0.4,0.6,0.4,1,0c4-4.4,8.1-8.7,12.1-13.1L154.4,113.2L154.4,113.2z"/>
	<path class="st0" d="M101.7,78.8c-1.9-2-1.8-2-3.6,0c-6.3,6.8-12.5,13.6-18.8,20.4c-4.1,4.4-8.2,8.8-12.3,13.2
		c-0.5,0.5-0.5,0.8,0,1.3c4.9,5.2,9.7,10.5,14.6,15.8c0.4,0.4,0.9,0.7,1.5,0.7h33.8c0.6,0,1.1-0.2,1.5-0.7c1.5-1.6,2.9-3.2,4.4-4.8
		c0.3-0.4,0.4-0.6,0-1c-1.3-1.4-2.7-2.9-4-4.4c-0.5-0.6-1.3-1-2.2-0.9H88.6c-0.5,0-1,0.2-1.4-0.3c-0.8-0.8-1.7-1.7-2.7-2.8h30.5
		c-0.2-0.3-0.3-0.5-0.4-0.6c-3.2-3.4-6.3-6.8-9.5-10.2c-0.6-0.8-1.6-1.2-2.6-1.1H91.5c2.3-2.8,4.7-5.1,6.8-7.6
		c2.8-3.3,5.7-6.3,8.7-9.4c0.7-0.8,0.7-1.2,0-1.9C105.2,82.6,103.6,80.8,101.7,78.8z"/>
	<path class="st0" d="M102.8,97.2c7.4,8,14.8,16,22.1,24c0.4,0.4,0.7,0.5,1.2,0c2.4-2.5,4.8-5,7.1-7.4c0.2-0.2,0.3-0.4,0.4-0.5
		c0-0.5-0.4-0.6-0.5-0.8c-7.4-8.1-14.9-16.1-22.3-24.2c-0.5-0.5-0.7-0.4-1.1,0.1c-2.3,2.5-4.7,5-7,7.5
		C102.2,96.4,102.3,96.7,102.8,97.2z"/>
</g>
</svg>
